<svg version="1" xmlns="http://www.w3.org/2000/svg" width="1365.333" height="1365.333" viewBox="0 0 1024.000000 1024.000000"><path d="M495 36c-4.7 1-10.2 2.5-12.2 3.3-2.1.9-3.8 1.3-3.8.9s-.4-.3-.8.3c-.4.5-3.3 2.3-6.5 4-3.2 1.6-6.6 3.7-7.6 4.6-1 .9-3.2 2.4-4.9 3.3-1.8.9-3.2 2.1-3.2 2.6 0 .6-.4 1-1 1-.5 0-10.1 6.5-21.2 14.5-11.2 8-21 14.9-21.8 15.5-.8.6-11.6 8.3-24 17.1-12.4 8.9-24.1 17.2-26 18.5-1.9 1.2-9.1 6.3-16 11.3-6.9 4.9-14.7 10.4-17.3 12.3-2.7 1.8-5.4 3.8-6 4.3-.7.6-7.3 5.3-14.7 10.5-7.4 5.2-16 11.4-19.2 13.7-3.1 2.4-6.1 4.3-6.6 4.3-.6 0-1.2.4-1.4.8-.1.4-14.2 10.6-31.2 22.7s-33.2 23.7-36 25.7c-2.8 2.1-5.7 4.1-6.5 4.5-.8.3-2.2 1.4-3.2 2.2-1 .9-4.6 3.5-8.1 5.9-3.5 2.4-13.5 9.5-22.3 15.8-8.8 6.4-17.1 12.3-18.5 13.2-2.8 1.9-16 11.2-17.5 12.5-.5.4-17 12.1-36.5 25.9C81.5 321 64.5 333 63.4 333.9c-1.2.9-3.2 2.3-4.4 3.1-1.2.8-5.9 4.2-10.4 7.5-9.4 7-13.2 12.8-14.2 21.9-1 8.6 1.4 14.3 11.4 27.6 4.8 6.3 8.9 11.9 9.1 12.5.2.5.7 1.2 1.1 1.5.3.3 3.3 4.1 6.6 8.5 3.2 4.4 6.1 8.2 6.4 8.5 1.8 1.8 10 13.2 10 13.9 0 .5.4 1.1.8 1.3.8.3 22.9 29.3 26.3 34.4 4.4 6.6 13.3 11.6 21.9 12 5.9.3 14.9-2.3 18.1-5.2 1.8-1.6 1.8 6 1.8 225.3v226.9l-45.7.1c-43.7.1-45.9.2-50.4 2.1-6.1 2.7-11.8 8-14.6 13.6-6.7 13.4-1.2 30.3 12.2 37.4l5.1 2.7h915l4.5-2.4c10-5.3 15.5-14.3 15.3-25.1-.1-7.4-.2-8.1-2.7-13.2-3.3-6.8-11.8-13.2-19.3-14.4-2.1-.4-23.4-.7-47.3-.8l-43.5-.1-.2-225.8c-.1-124.1-.1-225.7 0-225.7.2 0 2.3 1 4.8 2.2 6.9 3.3 16.8 3.1 24.2-.5 5.8-2.9 10.2-8 32.7-37.7 1.4-1.8 5-6.5 8.1-10.4 8-10.3 19.1-24.7 27.3-35.5 3.9-5.2 8.1-10.6 9.3-11.9 3-3.2 6.3-10.5 6.9-15.4.7-4.4-1.3-15.8-2.7-15.8-.5 0-.8-.4-.6-.9.5-2.1-6-8.2-17.5-16.4-19.6-14-54.1-38.5-56.1-39.9-1.1-.7-7.2-5.1-13.8-9.8-6.5-4.7-15.7-11.2-20.5-14.5-4.7-3.3-9.1-6.6-9.9-7.3-.7-.6-1.6-1.2-1.9-1.2-.3 0-1.4-.7-2.3-1.5-1-.8-7.2-5.3-13.8-9.9-6.6-4.7-12.4-8.9-13-9.3-.5-.5-3.2-2.4-6-4.3-2.7-1.9-5.1-3.7-5.3-4.2-.2-.4-.8-.8-1.3-.8-.6 0-1.5-.5-2.2-1-.7-.6-3.7-2.8-6.7-5-3-2.1-7.3-5.2-9.5-6.8-2.2-1.5-8-5.7-13-9.2-4.9-3.5-9.1-6.8-9.3-7.2-.2-.4-.8-.8-1.3-.8-.9 0-6.7-3.7-7.9-5-.3-.3-5.9-4.4-12.5-9-6.6-4.7-12.6-9-13.3-9.7-.7-.7-1.7-1.3-2.1-1.3-.4 0-1.6-.8-2.7-1.8-1.1-.9-2.7-2.2-3.6-2.7-2.2-1.3-22.3-15.5-25.1-17.7-1.2-.9-10.5-7.6-20.7-14.7-10.2-7.2-18.9-13.4-19.5-13.9-.5-.4-10.4-7.5-22-15.7-11.5-8.2-27.7-19.7-36-25.5-8.2-5.9-16.9-12-19.1-13.6-2.3-1.6-12.7-9-23-16.4-23.5-16.8-33.6-21.9-48.4-24.6-7.4-1.4-24-1.1-32 .6zm26.5 55.9c2.2.8 9 5 15.2 9.5 6.2 4.5 15.8 11.2 21.3 15.1 5.5 3.8 10 7.3 10 7.7 0 .5.5.8 1.1.8.9 0 12.4 7.8 17.4 11.8 2.3 1.8 29.2 20.8 31.6 22.4 1.5.9 3.5 2.3 4.6 3.2 1 .9 10.8 7.9 21.8 15.6 11 7.8 21.1 15 22.5 16 1.4 1 10.6 7.6 20.5 14.6s18.2 13.1 18.3 13.6c.2.4.8.8 1.3.8 1.1 0 12.2 8.1 12.7 9.2.2.5.8.8 1.4.8.6 0 2.7 1.3 4.8 3 2.1 1.6 4.2 3 4.8 3 .6 0 1.2.4 1.4.8.2.4 11.3 8.6 24.8 18.1 13.5 9.6 26.2 18.7 28.2 20.2 2 1.6 4.1 2.9 4.7 2.9.5 0 1.1.4 1.3.8.2.6 31.3 23.1 43.1 31.2 1.2.8 12.8 9 25.7 18.2 12.9 9.2 24.2 17.2 25 17.8 10.6 7.3 18.8 13.2 20.1 14.5.9.8 2.1 1.5 2.7 1.5.7 0 1.2.3 1.2.7 0 .5 2.7 2.6 6 4.8 3.3 2.2 6 4.4 6 4.9 0 .4-1.5 2.7-3.2 5-1.8 2.2-3.6 4.5-4 5.1-.4.5-2 2.6-3.5 4.5-1.6 1.9-4.2 5.3-5.8 7.5-1.6 2.2-3.1 4.2-3.4 4.5-.6.5-12.2 15.6-13.2 17.3-.4.5-5.5-2.5-11.5-6.7s-13.7-9.1-17.2-10.7c-5.4-2.7-7-3-12-2.6-7.7.7-9.5 1.3-15.9 5.2-3.6 2.2-8.4 9.2-10.2 14.8-1 2.9-1.3 59.5-1.3 259.1v255.3l-58.1-.1c-51.2-.1-58.2-.3-57.8-1.6.2-.8 1-3.8 1.7-6.5 2.1-7.6 2.5-17.3 2.7-63l.2-42 6-.2c3.3 0 10.7-.2 16.5-.3 11.8-.3 14.6-1 21-5.3 12-8.1 15.2-23.7 7.7-38.3-1.4-2.7-2.8-5.6-3.1-6.4-.4-.8-10.7-21.4-22.9-45.7L711.4 680l6.2-12.6c5.5-11.3 9.4-21.1 10-25.4.1-.8.6-4.3 1.1-7.6 1.5-9.6.8-21.3-1.8-30.9-.6-2.2-1.2-4.7-1.4-5.5-.7-3.4-5.6-13.4-10.1-20.2-2.5-4-8-10.6-12.1-14.6l-7.4-7.2 3.5-7.3c3.1-6.5 6.3-15.8 7.3-21.2 1.1-6.1 1-24.7-.2-30.5-2-9.8-2.1-10.2-5.5-18.4-7.5-17.9-23.6-34.5-41.1-42.5-6.7-3-9.7-4.2-11.4-4.6-.5-.2-2.8-.8-5-1.3-8-2.2-19.1-2.8-29.6-1.6-6.6.7-10.3 1.5-17.4 3.9-5.8 1.9-18.9 8.8-21.1 11-.9.8-1.8 1.5-2.2 1.5-1.6 0-17.2 16.2-17.2 17.9 0 .5-.6 1.4-1.4 2-1.9 1.6-7 11.4-9.6 18.3-3.5 9.5-4.9 18.5-4.5 30.8.1 6.3.3 11.5.5 11.5.1 0 .3.9.5 2 .8 4.6 1.7 7.9 3.9 13.9l2.3 6.4-2.4-.9c-1.2-.5-3.3-1.3-4.5-1.8-1.3-.5-2.7-1-3.3-1.1-.5-.1-2-.6-3.3-1.1-3.2-1.2-6.7-1.8-14.7-2.5-6.7-.6-7.2-.8-10.5-4.8-9.2-10.9-27.5-26.7-36.1-31.2l-2.8-1.4 4-7.5c6.3-12.1 9.1-23 9.4-36.6.3-11.1-1.1-23-3.5-28.9-.5-1.4-1.5-3.9-2.1-5.5-.7-1.7-1.3-3.2-1.4-3.5-1-3.9-10.6-17.8-16.9-24.3-11-11.4-28.5-20.5-45.1-23.6-7.3-1.4-24.9-1.1-31.9.6-20.2 4.6-36.1 14.6-48.7 30.5-15.8 20-21.3 46.2-15.4 72.8.2.8.4 1.5.5 1.5.1 0 .3.7.5 1.5.6 3.1 4.8 12.7 7.6 17.6l2.9 5.2-2.5 1.6c-1.3.9-2.9 1.6-3.5 1.6-.5 0-1 .4-1 1 0 .5-.5 1-1.1 1-1.3 0-14.8 10.9-20.4 16.5-5.5 5.5-13.4 15.1-17 20.5-1.7 2.5-3.2 4.7-3.5 5-.7.7-3.7 6.3-7.3 13.5-4.5 9.2-9.6 24.5-11.1 33.5-.3 1.9-.8 4.6-1 6-1.5 8.1-1.7 22.9-1.7 103.4 0 102-.4 96.2 8.4 105 6.9 6.8 11.4 8.3 25.7 8.6 6.3.1 13.8.3 16.5.3l5 .2.1 40c.2 42.6.8 57.6 2.4 64 .6 2.2 1.2 4.8 1.5 5.8.2.9.6 2.1.9 2.5.3.5-25.7.8-57.7.8l-58.2-.1-.2-254.7c-.2-287.4.6-261.8-8.1-270.6-2.6-2.6-6.5-5.6-8.7-6.7-5.8-2.7-15.9-2.9-21.4-.4-4.8 2.1-18.4 10.8-18.9 12.1-.2.4-.8.8-1.3.8s-2.8 1.3-5.1 3c-2.2 1.6-4.4 3-4.7 3-.4 0-3.8-4.2-7.6-9.3-3.8-5-7.3-9.7-7.8-10.2-.4-.6-2.6-3.5-4.8-6.5-2.2-3-4.5-6.2-5.2-7-5.7-7.2-7.6-9.8-7.9-10.8-.2-.9 16.4-13.5 29.6-22.4 1-.7 3-2.2 4.4-3.3l7.7-5.5c2.9-1.9 7.9-5.4 11.1-7.8 5.9-4.3 25.3-18.1 28.7-20.4 3.1-2.1 12.1-8.7 13.3-9.6.5-.5 2.1-1.5 3.5-2.2 1.3-.7 2.6-1.6 2.9-1.9.4-.6 11.3-8.5 17.7-12.9 1-.7 7.8-5.5 15.1-10.7 7.3-5.2 13.6-9.5 14.1-9.5s1.1-.4 1.3-.9c.2-.5 8.6-6.7 18.8-13.9 10.2-7.2 19-13.5 19.5-13.9 3.7-3 18.7-13.3 19.4-13.3.5 0 1.1-.4 1.3-.9.2-.4 6.6-5.3 14.3-10.7 7.7-5.4 21.4-15.2 30.5-21.6 9.1-6.5 17.3-12.3 18.4-13 1-.7 3.4-2.5 5.4-4.1 1.9-1.5 5.1-3.7 7.1-4.9 2-1.2 3.8-2.5 4.1-2.8.3-.3 10.6-7.7 23-16.5 12.4-8.7 24.1-17 26-18.4 20-14.8 60.8-42.9 63.3-43.7 4.5-1.3 13.5-1.1 18.2.5zM412.3 431c16.8 7.9 20.6 31.9 7.1 44.7-5.9 5.7-11 7.7-19.4 7.7-11.3 0-19.1-4.7-24.5-14.6-2.5-4.6-2.9-6.4-2.9-12.8 0-8.4 2.2-13.9 7.8-19.8 3-3.3 4.3-4 11.6-6.8 5-1.9 14.6-1.1 20.3 1.6zm223.1 55.5c10.2 4.4 17.1 16.1 16.2 27.7-.7 8.8-4.8 15.7-12.1 20.7-5.4 3.7-10.5 5-17.5 4.6-17.9-1.2-29.9-18.8-24.4-36.1 2.3-7.5 9.8-15.3 16.9-17.7 6-2 15.2-1.7 20.9.8zm-219.1 54.9c13.2 2.9 30.6 11.4 37.5 18.2 1.8 1.8 1.5 2.6-1.8 5.8-8.4 7.9-16.1 20.9-20.5 34.6-2.3 7.2-2.8 10.5-3 21.7-.2 7.3.1 14.9.6 17 .5 2.1 1.2 4.9 1.5 6.2 1.9 8.9 10.8 26.2 17.1 33.3 1.4 1.6 1.3 2.1-2.1 6.2-2 2.4-3.6 4.9-3.6 5.4 0 .6-.3 1.2-.7 1.4-2.3 1-9.3 17.3-11.3 26.3-2 8.8-2.2 17.3-2.3 107.5l-.2 88.5-2.3 4.4c-5.5 10.1-14 15.5-24.7 15.5-11.4 0-20.2-5.3-25.6-15.4-2.4-4.5-2.4-4.9-2.6-38.4-.2-18.7-.3-35.1-.4-36.5v-29.3c.1-29-.3-31.3-5.6-38.8-3.4-4.7-11.3-9.6-17.1-10.5-2.3-.4-10.7-.7-18.7-.7l-14.4-.1.2-76.6c.3-82.7 0-76.6 5-92.6 2.6-8.1 11.4-21.4 19.6-29.7 7.6-7.6 14-12.2 22.6-16.2 3.3-1.5 6.7-3.1 7.6-3.6 1.3-.7 11.7-3.3 17.4-4.3 3-.6 24.5 0 27.8.7zM657 598.8c4 1.9 8.4 5.5 11.5 9.4 3.7 4.5 5.7 15.9 4 22.3-.4 1.6-4.4 10.2-8.8 19-4.5 8.8-8.2 16.2-8.2 16.5-.1.3-.8 1.8-1.5 3.5-.8 1.6-1.4 6.4-1.4 10.6l-.1 7.6 17.3 34.6c9.4 19 17.2 34.9 17.2 35.3 0 .3.9 1.9 2.1 3.5l2.1 3-5.9-.1c-8.6-.1-12.8.6-17.6 2.9-5.5 2.7-10.1 7.1-12.6 12.4-2.9 6.1-3.3 9.7-3 26.9v48c0 .7 0 13.7-.1 28.8-.2 31.3-.8 34.5-8 41.9-5.9 6.1-12 8.6-20.5 8.5-10.7-.1-19.5-5.6-24.6-15.4l-2.4-4.5-.2-86.3c-.1-82.1-.6-106.2-1.9-108.3-.3-.5-.8-2.2-1-3.7-1.4-7.7-7.8-21-14.6-30-4-5.4-4.1-6.1-.8-9.2 2.4-2.2 11.6-18.4 12.5-22 .1-.3.4-1.2.8-2 1.1-2.9 2.7-8.6 3.4-12.5 1.3-6.8.6-29.5-1-35.5-1-3.6-1.2-5.8-.6-6.5.6-.6 9.3-1.1 20.7-1.3 10.8-.1 20.6-.4 21.7-.5 5.6-.6 17.4 1.1 21.5 3.1zm-133.6-.3c5.8 2.5 12.9 10.1 14.8 16 6.2 19.5-7.9 38.2-28.1 37.1-9.7-.6-17.7-5.8-22.6-14.8-2.5-4.5-3-6.4-3-12.8 0-8.4 2-13.5 7.8-19.7 3.1-3.4 4.2-4 11.7-6.9 4.4-1.8 14.1-1.2 19.4 1.1zm-2.6 111.1c6.5 2.1 12.9 7.7 16.3 14.4 1.6 3.3 2.3 6.6 2.6 12.5.1 4.4.3 8.2.4 8.5.1.3.1.8.1 1.1-.2 1.6-.3 8.2-.3 17.4V775c-.1.8 0 3.1.1 5s.1 16.1.1 31.5c-.1 15.4-.1 28.4 0 29 .1.5.1 1.3.1 1.6-.2 1.6-.3 8.2-.3 17.4v12c0 1.1 0 4.5.1 7.5 0 3-.1 12-.3 20-.2 12.8-.5 15-2.6 18.9-5.4 10.2-14.4 15.7-25.6 15.5-7.5-.1-11.2-1.5-17.6-6.5-4-3.2-8.5-10.8-9.3-15.9-.4-3-.8-17.1-.5-22 .1-.8 0-3.1-.1-5s-.1-16.1-.1-31.5c.1-15.4.1-28.5 0-29-.1-.6-.1-1.3-.1-1.6.2-1.6.3-8.2.3-17.4v-12c0-1.1 0-4.5-.1-7.5 0-3 .1-17 .2-31 .3-22.9.5-25.9 2.3-29.5 3.2-6.7 11.6-13.9 17.3-15.1.8-.1 1.6-.4 1.8-.6 1.1-1.2 10.4-.7 15.2.8z"/></svg>