<svg version="1" xmlns="http://www.w3.org/2000/svg" width="1365.333" height="1365.333" viewBox="0 0 1024.000000 1024.000000"><path d="M496.5 8.1c-2.2.4-6.2 1-8.8 1.3-11.3 1.5-38.4 10.1-44.9 14.2-2.1 1.3-3.9 2.4-4.2 2.4-.2 0-3.3 1.7-6.7 3.8-3.5 2.1-8.9 5.2-11.9 6.9-5 2.8-33.5 19.1-37 21.2-2 1.2-44 25.3-64.5 37-8.8 5-16.7 9.5-17.5 10-1.9 1.2-50.7 29.3-117.5 67.6-28.6 16.5-52.4 30.5-53 31.2-.5.7-3.1 2.7-5.7 4.5-23.6 16.7-46.8 48.3-56.8 77.3-2.1 6-5.9 20.2-6.5 24-.6 3.9-1.8 12-2.1 14.5-.9 7.5 0 354 1 367.2.7 9.4 1 11.4 4.2 25.3 2.8 12.3 3.5 14.2 11.1 30.5 8.9 18.9 17.9 31.6 33 46.6 5.1 5.1 9.3 9.9 9.3 10.6 0 1.2 9.9 7.6 22 14.2 1.9 1 11.6 6.6 21.5 12.4 9.9 5.7 19.8 11.5 22 12.7 2.2 1.3 9.6 5.6 16.5 9.5 6.9 4 14.5 8.4 17 9.8 2.5 1.4 7.4 4.2 10.9 6.4 3.4 2.1 6.5 3.8 6.7 3.8.3 0 2.1 1.1 4.2 2.3 2 1.3 5.7 3.5 8.2 4.9 2.5 1.4 18.7 10.8 36 20.8 17.3 10.1 32.9 19.1 34.6 20 1.6 1 22.9 13.3 47.2 27.4 24.3 14.1 44.4 25.6 44.7 25.6.2 0 4.4 2.6 9.2 5.8 20.9 14 33.5 20 54.8 26.1 4 1.1 6.4 1.6 14 2.7 2.2.3 5.1.8 6.5 1.1 1.4.2 8.6.6 16 .8 35.2 1 67.9-8.3 96.5-27.5 3.9-2.6 14.9-9.2 24.5-14.7s26.5-15.2 37.5-21.6c11-6.3 21.6-12.3 23.5-13.3 1.9-1.1 3.7-2.2 4-2.5.3-.3 1-.8 1.6-1 .5-.2 10.4-5.8 21.8-12.4 11.3-6.6 22.8-13.2 25.4-14.6 2.6-1.5 13.3-7.6 23.7-13.6 10.5-6 31.2-18 46-26.5 14.9-8.6 28.6-16.5 30.5-17.6 1.9-1.2 4.6-2.7 6-3.5 51.7-28.6 68.7-41.6 88.2-67.7 4.8-6.4 16.8-26.7 16.8-28.4 0-.3 1.1-2.9 2.3-5.8 1.3-2.9 2.9-6.7 3.5-8.3 1.7-4.5 6.9-25.3 7.6-30.5.3-2.5 1-7 1.5-10 .8-5.3 1.2-78 1.4-266 .1-77.8-.3-99.7-1.9-107.3-.2-1.2-.7-3.8-1-5.7-1.7-10.5-5.8-24.4-10-33.8-1.3-2.8-3.5-7.8-4.9-11-6.6-14.9-17.6-30.3-31.9-44.3-5.9-5.9-10.6-11.1-10.3-11.6.3-.4-9.7-6.7-22.1-13.9-12.5-7.2-35.5-20.5-51.2-29.6-15.7-9.1-29.9-17.3-31.5-18.2-1.7-.9-4.3-2.5-6-3.5-2.7-1.6-18.7-10.9-26-15.1-3.8-2.2-12.2-7-63-36.5C690 81.4 667.2 68.3 662 65.3c-5.2-3.1-9.9-5.9-10.5-6.3-.5-.4-3.5-2.1-6.5-3.7-3-1.7-16-9.1-28.8-16.6-12.8-7.5-24.3-13.9-25.5-14.3-1.2-.3-4.6-1.7-7.4-3-6.3-2.8-25.3-9.5-25.3-8.9 0 .3-1 .1-2.3-.4-1.2-.5-6.7-1.7-12.2-2.6-10.4-1.9-39.3-2.7-47-1.4zm47.9 57.5c5 1.4 12.6 4.3 17 6.4 11.6 5.7 30.9 15.9 39.1 20.6 3.9 2.3 14.2 8.3 23 13.4s17.4 10.1 19 11c1.7 1 5.5 3.2 8.5 5 3 1.8 7.1 4.2 9 5.3 1.9 1 28.3 16.3 58.5 34 30.3 17.6 56.5 32.8 58.3 33.8 6.8 4 10 5.8 18.7 10.9 5 2.9 10.6 6.3 12.7 7.4 2 1.2 6.2 3.7 9.5 5.6 3.2 1.9 6.7 3.9 7.9 4.6 28.1 15.4 50.1 29.5 58.7 37.7 2.8 2.6 12.5 14.9 15.2 19.2 4.1 6.4 10.6 20.3 12.9 27.5 5.3 16.4 5.1 8.3 4.9 199.5-.2 97.9-.6 178.7-.9 179.5-.3.8-.8 2.8-1.1 4.5-2.9 18.7-11 38.9-20.3 50.5-7.4 9.2-11 13-16.5 17.5-2.8 2.2-5.2 4.3-5.5 4.6-1 1.2-13.2 8.9-19.7 12.5-3.8 2.1-7.2 4.3-7.8 5-.5.6-10.9 6.8-23 13.7-12.1 6.9-30.3 17.3-40.5 23.2-10.2 5.9-20.3 11.7-22.5 13-2.2 1.2-8 4.6-13 7.5-4.9 2.9-11 6.4-13.5 7.8-5.1 2.9-35.8 20.6-53.5 30.8-6.6 3.9-12.7 7.3-13.5 7.7-.8.4-2.9 1.5-4.5 2.6-2.7 1.6-37.9 22-46.5 26.9-15.4 8.7-35.7 20.6-41.5 24.3-11.9 7.6-25.3 13.2-34.4 14.5-1.8.2-3.6.6-4 .8-.7.5-12.8 1.8-17.1 1.9-2.2.1-18.7-1.4-20-1.8-.3-.1-3.2-.7-6.5-1.4-14.6-3.2-31-10.5-42.1-18.8-1.7-1.3-3.4-2.3-3.9-2.3-.4 0-6.9-3.6-14.4-7.9-24.9-14.5-50.6-29.4-54.1-31.4-6.5-3.6-42.3-24.3-64.5-37.2-12.1-7-23.9-13.9-26.2-15.2-34.8-19.5-125-72.6-128.8-75.6-9.2-7.6-18.3-17.7-25.3-27.9-4.8-7.1-13.3-27.7-14.7-35.7-.2-1.4-.7-4.2-1-6.1-.4-1.9-.9-6.4-1.1-10-1.4-20.2-2.5-350.3-1.3-359.5 3.3-23.4 13.6-44.7 29.6-61 10.1-10.2 16.1-14.8 30.3-23 6.3-3.6 13.5-7.9 16-9.4 2.5-1.6 14-8.3 25.5-15 11.6-6.7 22.3-12.9 24-13.9 1.6-.9 6.1-3.5 10-5.8 3.8-2.3 9-5.2 11.5-6.6 2.5-1.4 13.3-7.6 24-13.8 10.7-6.2 31.4-18.1 46-26.5 14.6-8.4 38.4-22.1 53-30.5 66-38.1 80.8-46.5 86-49 10.9-5.4 25.2-8.6 40.3-8.9 5-.1 9.3-.3 9.4-.5.8-.8 17.1 1.8 24.7 4z"/><path d="M512.6 101.7c-.1.1-3.8.3-8.1.3-4.4.1-9.6.6-11.5 1-1.9.5-5.3 1.1-7.4 1.5-5.1.7-19.2 5.2-23.3 7.3-1.8.9-7.3 4.2-12.3 7.2-5 3-10.3 6.2-11.8 7.1-1.5.9-11.7 7-22.7 13.6-27.3 16.4-137.4 82.2-140.7 84.2-1.5.9-8.2 4.9-15 9-6.8 4.1-13.2 7.9-14.3 8.5-11.3 6-25.3 15.7-29.9 20.7-11.1 11.9-12.9 27.3-4.8 39.9 3.5 5.3 9.2 11.2 14.7 15 3.4 2.3 118 71.3 124 74.6 1.1.6 24.7 14.7 52.5 31.4 27.8 16.6 53.7 31.9 57.5 33.9 7 3.7 20.5 8.4 28 9.7 2.2.4 4.9.9 6 1.2 1.1.2 8.5.6 16.5.8 21.4.5 38.7-3.1 55.4-11.6 3.9-2 20.2-11.4 36.1-20.9 16-9.6 30.4-18.2 32-19.1 1.7-1 6.7-4 11.1-6.7 4.5-2.8 8.5-5.2 9-5.4 1.2-.5 27.7-16.4 32.4-19.4 3.6-2.4 74.1-44.4 79.7-47.6 1.8-1 6.1-3.7 9.6-5.9s6.9-4 7.6-4c.6 0 1.1-.5 1.1-1 0-.6.4-1 .9-1s3.3-1.5 6.2-3.3c18.1-10.8 27.2-22.1 28.2-34.7.8-10.1-3-19.8-10.9-27.6-3.1-3.2-16.1-12.1-23.6-16.1-1.8-1-14.9-8.8-29-17.3-14.2-8.5-27-16.2-28.5-17.1-1.6-.9-21.5-12.8-44.3-26.4-135.3-81-121.8-73.2-132.5-76.3-10.5-3.1-18-4.4-28.3-5.1-5.1-.3-9.4-.5-9.6-.4zM174.5 351.4c-12 3.8-20.5 13.6-23.5 27.1-1.3 5.5-1.6 18.2-2.5 81-.3 23.1-.8 57.3-1.1 76-1.9 130.4-1.9 129.1.4 140.5 1.1 5.2 3 12 4.2 15 6.2 15.7 19.4 36.5 30 47.1 11.6 11.6 11.6 11.6 90.5 55.4 12.7 7 24.8 13.8 27 15 2.2 1.2 7.6 4.3 12 6.8 6.4 3.6 86.8 48.4 100.5 56 1.9 1 7.8 4.3 13.1 7.3 19.9 11.2 31.2 13.7 44.4 9.9 8.4-2.5 16.9-12.3 19.9-22.9 2.2-7.7 2.6-14.5 3.1-45.1.3-15.4.7-42 1-59 .3-17.1.7-42.5 1-56.5 2.4-131.5 2.5-127-1.4-143.5-6.2-25.8-22.1-51.3-42.9-68.6-3.4-2.8-31.7-19-56.2-32.3-1.9-1-11.4-6.2-21-11.6-9.6-5.3-20.2-11.2-23.5-13-3.3-1.8-8.5-4.6-11.5-6.3-3-1.7-8.9-4.9-13-7.2s-10.6-5.9-14.5-8c-3.8-2.1-7.4-4.1-8-4.5-.5-.4-4.1-2.4-8-4.5-13.3-7.2-18-9.8-21-11.5-1.6-1-11.5-6.5-22-12.3-10.4-5.7-20.6-11.3-22.5-12.4-4.2-2.3-12-6.7-21.2-11.7-3.7-2-8.9-4.3-11.5-5.1-6.8-2.1-17-2.6-21.8-1.1zM839.7 351.1c-6.9 1.1-11.4 3.1-26.2 11.4-7.1 4-34.4 19.1-60.5 33.5-26.1 14.4-57.6 31.9-70 38.8-12.4 6.9-23.8 13.3-25.5 14.2-1.6.9-6.6 3.6-11 6-4.4 2.3-8.4 4.6-9 5-.5.4-5.9 3.4-12 6.7-6 3.3-12.6 6.9-14.5 8-1.9 1.1-6.6 3.7-10.5 5.8-20 11-34.2 23-43 36.5-11 16.8-17.7 32-21.2 48-2.3 10.4-2.3 31.1.2 166 .2 11.3.6 37.8 1 59 1.2 68.6 1.1 68.3 3 74.6 2.4 8.3 5 13 9.7 17.5 6.9 6.6 17.1 9.3 28.3 7.5 4.5-.7 18.4-5.8 21-7.6.6-.4 3-1.8 5.5-3.2 2.5-1.4 17.8-9.9 34-19s32.1-17.9 35.4-19.7c3.2-1.8 8.1-4.6 10.8-6.2 2.7-1.6 5.1-2.9 5.3-2.9.2 0 4.6-2.5 9.9-5.5 5.2-3 9.8-5.5 10.1-5.5.3 0 2.3-1.1 4.4-2.4 2.1-1.3 8-4.8 13.2-7.6 13.1-7.3 12.5-7 59.9-33.4 23.4-13.1 45-25.7 48-27.9 22-16.6 42.3-48.2 46.5-72.7.4-1.9 1-5.8 1.5-8.5.8-4.6.6-41.5-.5-115-.2-16-.7-48.6-1-72.5-1.4-97.8-1.3-94.7-4-104.1-3.7-12.8-11.6-21.3-22.5-24.2-6.3-1.7-9.5-1.8-16.3-.6z"/></svg>